<svg width="129" height="229" viewBox="0 0 129 229" fill="none" xmlns="http://www.w3.org/2000/svg">
<rect x="14" y="23" width="101" height="23" rx="5" fill="white" fill-opacity="0.65"/>
<rect x="52" y="31" width="45" height="7" fill="#C4C4C4"/>
<circle cx="30.5" cy="34.5" r="8.5" fill="#C4C4C4"/>
<rect x="95" y="42" width="15" height="9" rx="3" fill="#00B794"/>
<path d="M100.458 45.9956C100.458 46.2511 100.436 46.4855 100.39 46.6987C100.346 46.9119 100.277 47.1024 100.183 47.27C100.09 47.436 99.9702 47.5776 99.8237 47.6948C99.6772 47.8104 99.5023 47.8983 99.2988 47.9585C99.0954 48.0187 98.861 48.0488 98.5957 48.0488C98.5225 48.0488 98.437 48.0472 98.3394 48.0439C98.2433 48.0407 98.1619 48.0342 98.0952 48.0244V47.2603C98.1652 47.2716 98.2352 47.2814 98.3052 47.2896C98.3752 47.2961 98.4565 47.2993 98.5493 47.2993C98.8179 47.2993 99.0254 47.2611 99.1719 47.1846C99.32 47.1081 99.4242 47.0023 99.4844 46.8672C99.5446 46.7305 99.5796 46.5734 99.5894 46.396H99.5601C99.5177 46.4757 99.4665 46.5474 99.4062 46.6108C99.346 46.6727 99.2703 46.7215 99.1792 46.7573C99.0881 46.7931 98.9749 46.811 98.8398 46.811C98.6396 46.811 98.4655 46.7655 98.3174 46.6743C98.1709 46.5832 98.057 46.4513 97.9756 46.2788C97.8942 46.1047 97.8535 45.8931 97.8535 45.644C97.8535 45.3787 97.904 45.1525 98.0049 44.9653C98.1074 44.7765 98.2531 44.6317 98.4419 44.5308C98.6323 44.4299 98.8586 44.3794 99.1206 44.3794C99.3062 44.3794 99.4795 44.4111 99.6406 44.4746C99.8034 44.5381 99.9458 44.6357 100.068 44.7676C100.19 44.8978 100.285 45.0646 100.354 45.2681C100.424 45.4715 100.458 45.714 100.458 45.9956ZM99.145 45.1509C99.0327 45.1509 98.9448 45.1891 98.8813 45.2656C98.8195 45.3421 98.7886 45.465 98.7886 45.6343C98.7886 45.7677 98.8179 45.8735 98.8765 45.9517C98.9351 46.0298 99.0213 46.0688 99.1353 46.0688C99.2069 46.0688 99.2695 46.0501 99.3232 46.0127C99.3786 45.9736 99.4217 45.9248 99.4526 45.8662C99.4836 45.806 99.499 45.7441 99.499 45.6807C99.499 45.6172 99.4917 45.5545 99.4771 45.4927C99.464 45.4292 99.4429 45.3722 99.4136 45.3218C99.3859 45.2697 99.3493 45.2282 99.3037 45.1973C99.2598 45.1663 99.2069 45.1509 99.145 45.1509ZM103.383 46.2202C103.383 46.5067 103.361 46.763 103.315 46.9893C103.269 47.2139 103.196 47.4051 103.095 47.563C102.996 47.7209 102.864 47.8413 102.7 47.9243C102.535 48.0073 102.333 48.0488 102.094 48.0488C101.796 48.0488 101.552 47.9764 101.362 47.8315C101.171 47.6851 101.031 47.4759 100.939 47.2041C100.85 46.9307 100.805 46.6027 100.805 46.2202C100.805 45.8345 100.846 45.5049 100.927 45.2314C101.01 44.9564 101.146 44.7456 101.335 44.5991C101.524 44.4526 101.777 44.3794 102.094 44.3794C102.392 44.3794 102.635 44.4526 102.824 44.5991C103.015 44.744 103.155 44.9539 103.247 45.229C103.338 45.5024 103.383 45.8328 103.383 46.2202ZM101.765 46.2202C101.765 46.453 101.773 46.6483 101.789 46.8062C101.807 46.964 101.84 47.0828 101.887 47.1626C101.936 47.2407 102.005 47.2798 102.094 47.2798C102.184 47.2798 102.252 47.2407 102.299 47.1626C102.347 47.0828 102.379 46.9648 102.397 46.8086C102.415 46.6507 102.424 46.4546 102.424 46.2202C102.424 45.9842 102.415 45.7873 102.397 45.6294C102.379 45.4715 102.347 45.3527 102.299 45.2729C102.252 45.1916 102.184 45.1509 102.094 45.1509C102.005 45.1509 101.936 45.1916 101.887 45.2729C101.84 45.3527 101.807 45.4715 101.789 45.6294C101.773 45.7873 101.765 45.9842 101.765 46.2202ZM104.56 44.3794C104.84 44.3794 105.065 44.4771 105.234 44.6724C105.405 44.8677 105.49 45.1419 105.49 45.4951C105.49 45.8483 105.41 46.1242 105.251 46.3228C105.091 46.5213 104.861 46.6206 104.56 46.6206C104.287 46.6206 104.066 46.5213 103.898 46.3228C103.732 46.1242 103.649 45.8483 103.649 45.4951C103.649 45.1419 103.728 44.8677 103.884 44.6724C104.042 44.4771 104.267 44.3794 104.56 44.3794ZM104.57 44.9751C104.5 44.9751 104.451 45.0231 104.423 45.1191C104.397 45.2135 104.384 45.3421 104.384 45.5049C104.384 45.6644 104.397 45.793 104.423 45.8906C104.451 45.9867 104.5 46.0347 104.57 46.0347C104.64 46.0347 104.688 45.9875 104.714 45.8931C104.74 45.797 104.753 45.6676 104.753 45.5049C104.753 45.3421 104.74 45.2135 104.714 45.1191C104.688 45.0231 104.64 44.9751 104.57 44.9751ZM107.27 44.4307L105.29 48H104.565L106.545 44.4307H107.27ZM107.275 45.8003C107.555 45.8003 107.779 45.8979 107.949 46.0933C108.12 46.2886 108.205 46.5628 108.205 46.916C108.205 47.2676 108.125 47.5426 107.966 47.7412C107.806 47.9398 107.576 48.0391 107.275 48.0391C107.001 48.0391 106.781 47.9398 106.613 47.7412C106.447 47.5426 106.364 47.2676 106.364 46.916C106.364 46.5628 106.442 46.2886 106.599 46.0933C106.757 45.8979 106.982 45.8003 107.275 45.8003ZM107.285 46.396C107.215 46.396 107.166 46.444 107.138 46.54C107.112 46.6344 107.099 46.763 107.099 46.9258C107.099 47.0853 107.112 47.2139 107.138 47.3115C107.166 47.4076 107.215 47.4556 107.285 47.4556C107.355 47.4556 107.403 47.4084 107.429 47.314C107.456 47.2179 107.47 47.0885 107.47 46.9258C107.47 46.7565 107.456 46.6263 107.429 46.5352C107.403 46.4424 107.355 46.396 107.285 46.396Z" fill="white"/>
<rect x="14" y="56" width="101" height="23" rx="5" fill="white" fill-opacity="0.65"/>
<rect x="52" y="64" width="45" height="7" fill="#C4C4C4"/>
<circle cx="30.5" cy="67.5" r="8.5" fill="#C4C4C4"/>
<rect x="95" y="75" width="15" height="9" rx="3" fill="#00B794"/>
<path d="M98.6743 77.3794C98.9103 77.3794 99.117 77.4111 99.2944 77.4746C99.4735 77.5381 99.6134 77.6349 99.7144 77.7651C99.8153 77.8937 99.8657 78.0557 99.8657 78.251C99.8657 78.3942 99.8389 78.5203 99.7852 78.6294C99.7331 78.7368 99.6606 78.8312 99.5679 78.9126C99.4767 78.9924 99.3709 79.0615 99.2505 79.1201C99.3628 79.1836 99.4743 79.2576 99.585 79.3423C99.6956 79.4269 99.7876 79.527 99.8608 79.6426C99.9341 79.7565 99.9707 79.8924 99.9707 80.0503C99.9707 80.2407 99.9243 80.4116 99.8315 80.563C99.7388 80.7127 99.5964 80.8315 99.4043 80.9194C99.2122 81.0057 98.9657 81.0488 98.6646 81.0488C98.3634 81.0488 98.1169 81.0073 97.9248 80.9243C97.7327 80.8413 97.5911 80.7257 97.5 80.5776C97.4105 80.4279 97.3657 80.2554 97.3657 80.0601C97.3657 79.894 97.3934 79.7541 97.4487 79.6401C97.5057 79.5262 97.583 79.4294 97.6807 79.3496C97.7783 79.2699 97.8898 79.1982 98.0151 79.1348C97.9159 79.068 97.8247 78.9924 97.7417 78.9077C97.6587 78.8231 97.5928 78.7262 97.5439 78.6172C97.4951 78.5081 97.4707 78.3844 97.4707 78.2461C97.4707 78.054 97.522 77.8937 97.6245 77.7651C97.7271 77.6366 97.8687 77.5405 98.0493 77.4771C98.2316 77.4119 98.4399 77.3794 98.6743 77.3794ZM98.2495 80.021C98.2495 80.1203 98.2853 80.2008 98.3569 80.2627C98.4285 80.3245 98.5278 80.3555 98.6548 80.3555C98.8029 80.3555 98.9111 80.3278 98.9795 80.2725C99.0495 80.2155 99.0845 80.1382 99.0845 80.0405C99.0845 79.9673 99.0625 79.9014 99.0186 79.8428C98.9762 79.7826 98.9266 79.7305 98.8696 79.6865C98.8127 79.6426 98.763 79.6084 98.7207 79.584L98.6548 79.5449C98.5815 79.5824 98.514 79.6247 98.4521 79.6719C98.3919 79.7174 98.3431 79.7695 98.3057 79.8281C98.2682 79.8851 98.2495 79.9494 98.2495 80.021ZM98.6694 78.0752C98.5897 78.0752 98.5205 78.0988 98.4619 78.146C98.4033 78.1916 98.374 78.2542 98.374 78.334C98.374 78.3861 98.3862 78.4349 98.4106 78.4805C98.4367 78.5244 98.4709 78.5651 98.5132 78.6025C98.5571 78.64 98.606 78.6742 98.6597 78.7051C98.7069 78.6774 98.7533 78.6473 98.7988 78.6147C98.8444 78.5822 98.8826 78.5431 98.9136 78.4976C98.9445 78.452 98.96 78.3975 98.96 78.334C98.96 78.2542 98.9307 78.1916 98.8721 78.146C98.8151 78.0988 98.7476 78.0752 98.6694 78.0752ZM101.75 78.6611C101.949 78.6611 102.13 78.7059 102.292 78.7954C102.455 78.8849 102.585 79.0151 102.683 79.186C102.781 79.3569 102.83 79.5653 102.83 79.811C102.83 80.0763 102.776 80.3018 102.668 80.4873C102.563 80.6712 102.402 80.8112 102.188 80.9072C101.974 81.0016 101.705 81.0488 101.379 81.0488C101.173 81.0488 100.984 81.0326 100.813 81C100.644 80.9691 100.492 80.9211 100.359 80.856V80.0649C100.484 80.1219 100.635 80.174 100.811 80.2212C100.988 80.2668 101.151 80.2896 101.299 80.2896C101.418 80.2896 101.519 80.2725 101.602 80.2383C101.685 80.2041 101.747 80.1536 101.79 80.0869C101.833 80.0202 101.855 79.938 101.855 79.8403C101.855 79.7052 101.807 79.5994 101.709 79.5229C101.611 79.4448 101.463 79.4058 101.265 79.4058C101.175 79.4058 101.087 79.4147 101.001 79.4326C100.915 79.4505 100.839 79.4701 100.774 79.4912L100.42 79.3154L100.554 77.4307H102.59V78.2339H101.375L101.331 78.7051C101.383 78.6953 101.436 78.6855 101.489 78.6758C101.545 78.666 101.632 78.6611 101.75 78.6611ZM104.06 77.3794C104.34 77.3794 104.565 77.4771 104.734 77.6724C104.905 77.8677 104.99 78.1419 104.99 78.4951C104.99 78.8483 104.91 79.1242 104.751 79.3228C104.591 79.5213 104.361 79.6206 104.06 79.6206C103.787 79.6206 103.566 79.5213 103.398 79.3228C103.232 79.1242 103.149 78.8483 103.149 78.4951C103.149 78.1419 103.228 77.8677 103.384 77.6724C103.542 77.4771 103.767 77.3794 104.06 77.3794ZM104.07 77.9751C104 77.9751 103.951 78.0231 103.923 78.1191C103.897 78.2135 103.884 78.3421 103.884 78.5049C103.884 78.6644 103.897 78.793 103.923 78.8906C103.951 78.9867 104 79.0347 104.07 79.0347C104.14 79.0347 104.188 78.9875 104.214 78.8931C104.24 78.797 104.253 78.6676 104.253 78.5049C104.253 78.3421 104.24 78.2135 104.214 78.1191C104.188 78.0231 104.14 77.9751 104.07 77.9751ZM106.77 77.4307L104.79 81H104.065L106.045 77.4307H106.77ZM106.775 78.8003C107.055 78.8003 107.279 78.8979 107.449 79.0933C107.62 79.2886 107.705 79.5628 107.705 79.916C107.705 80.2676 107.625 80.5426 107.466 80.7412C107.306 80.9398 107.076 81.0391 106.775 81.0391C106.501 81.0391 106.281 80.9398 106.113 80.7412C105.947 80.5426 105.864 80.2676 105.864 79.916C105.864 79.5628 105.942 79.2886 106.099 79.0933C106.257 78.8979 106.482 78.8003 106.775 78.8003ZM106.785 79.396C106.715 79.396 106.666 79.444 106.638 79.54C106.612 79.6344 106.599 79.763 106.599 79.9258C106.599 80.0853 106.612 80.2139 106.638 80.3115C106.666 80.4076 106.715 80.4556 106.785 80.4556C106.855 80.4556 106.903 80.4084 106.929 80.314C106.956 80.2179 106.97 80.0885 106.97 79.9258C106.97 79.7565 106.956 79.6263 106.929 79.5352C106.903 79.4424 106.855 79.396 106.785 79.396Z" fill="white"/>
<rect x="14" y="89" width="101" height="23" rx="5" fill="white" fill-opacity="0.65"/>
<rect x="52" y="97" width="45" height="7" fill="#C4C4C4"/>
<circle cx="30.5" cy="100.5" r="8.5" fill="#C4C4C4"/>
<rect x="95" y="108" width="15" height="9" rx="3" fill="#00B794"/>
<path d="M98.6743 110.379C98.9103 110.379 99.117 110.411 99.2944 110.475C99.4735 110.538 99.6134 110.635 99.7144 110.765C99.8153 110.894 99.8657 111.056 99.8657 111.251C99.8657 111.394 99.8389 111.52 99.7852 111.629C99.7331 111.737 99.6606 111.831 99.5679 111.913C99.4767 111.992 99.3709 112.062 99.2505 112.12C99.3628 112.184 99.4743 112.258 99.585 112.342C99.6956 112.427 99.7876 112.527 99.8608 112.643C99.9341 112.757 99.9707 112.892 99.9707 113.05C99.9707 113.241 99.9243 113.412 99.8315 113.563C99.7388 113.713 99.5964 113.832 99.4043 113.919C99.2122 114.006 98.9657 114.049 98.6646 114.049C98.3634 114.049 98.1169 114.007 97.9248 113.924C97.7327 113.841 97.5911 113.726 97.5 113.578C97.4105 113.428 97.3657 113.255 97.3657 113.06C97.3657 112.894 97.3934 112.754 97.4487 112.64C97.5057 112.526 97.583 112.429 97.6807 112.35C97.7783 112.27 97.8898 112.198 98.0151 112.135C97.9159 112.068 97.8247 111.992 97.7417 111.908C97.6587 111.823 97.5928 111.726 97.5439 111.617C97.4951 111.508 97.4707 111.384 97.4707 111.246C97.4707 111.054 97.522 110.894 97.6245 110.765C97.7271 110.637 97.8687 110.541 98.0493 110.477C98.2316 110.412 98.4399 110.379 98.6743 110.379ZM98.2495 113.021C98.2495 113.12 98.2853 113.201 98.3569 113.263C98.4285 113.325 98.5278 113.355 98.6548 113.355C98.8029 113.355 98.9111 113.328 98.9795 113.272C99.0495 113.215 99.0845 113.138 99.0845 113.041C99.0845 112.967 99.0625 112.901 99.0186 112.843C98.9762 112.783 98.9266 112.73 98.8696 112.687C98.8127 112.643 98.763 112.608 98.7207 112.584L98.6548 112.545C98.5815 112.582 98.514 112.625 98.4521 112.672C98.3919 112.717 98.3431 112.77 98.3057 112.828C98.2682 112.885 98.2495 112.949 98.2495 113.021ZM98.6694 111.075C98.5897 111.075 98.5205 111.099 98.4619 111.146C98.4033 111.192 98.374 111.254 98.374 111.334C98.374 111.386 98.3862 111.435 98.4106 111.48C98.4367 111.524 98.4709 111.565 98.5132 111.603C98.5571 111.64 98.606 111.674 98.6597 111.705C98.7069 111.677 98.7533 111.647 98.7988 111.615C98.8444 111.582 98.8826 111.543 98.9136 111.498C98.9445 111.452 98.96 111.397 98.96 111.334C98.96 111.254 98.9307 111.192 98.8721 111.146C98.8151 111.099 98.7476 111.075 98.6694 111.075ZM102.883 112.22C102.883 112.507 102.861 112.763 102.815 112.989C102.769 113.214 102.696 113.405 102.595 113.563C102.496 113.721 102.364 113.841 102.2 113.924C102.035 114.007 101.833 114.049 101.594 114.049C101.296 114.049 101.052 113.976 100.862 113.832C100.671 113.685 100.531 113.476 100.439 113.204C100.35 112.931 100.305 112.603 100.305 112.22C100.305 111.834 100.346 111.505 100.427 111.231C100.51 110.956 100.646 110.746 100.835 110.599C101.024 110.453 101.277 110.379 101.594 110.379C101.892 110.379 102.135 110.453 102.324 110.599C102.515 110.744 102.655 110.954 102.747 111.229C102.838 111.502 102.883 111.833 102.883 112.22ZM101.265 112.22C101.265 112.453 101.273 112.648 101.289 112.806C101.307 112.964 101.34 113.083 101.387 113.163C101.436 113.241 101.505 113.28 101.594 113.28C101.684 113.28 101.752 113.241 101.799 113.163C101.847 113.083 101.879 112.965 101.897 112.809C101.915 112.651 101.924 112.455 101.924 112.22C101.924 111.984 101.915 111.787 101.897 111.629C101.879 111.472 101.847 111.353 101.799 111.273C101.752 111.192 101.684 111.151 101.594 111.151C101.505 111.151 101.436 111.192 101.387 111.273C101.34 111.353 101.307 111.472 101.289 111.629C101.273 111.787 101.265 111.984 101.265 112.22ZM104.06 110.379C104.34 110.379 104.565 110.477 104.734 110.672C104.905 110.868 104.99 111.142 104.99 111.495C104.99 111.848 104.91 112.124 104.751 112.323C104.591 112.521 104.361 112.621 104.06 112.621C103.787 112.621 103.566 112.521 103.398 112.323C103.232 112.124 103.149 111.848 103.149 111.495C103.149 111.142 103.228 110.868 103.384 110.672C103.542 110.477 103.767 110.379 104.06 110.379ZM104.07 110.975C104 110.975 103.951 111.023 103.923 111.119C103.897 111.214 103.884 111.342 103.884 111.505C103.884 111.664 103.897 111.793 103.923 111.891C103.951 111.987 104 112.035 104.07 112.035C104.14 112.035 104.188 111.987 104.214 111.893C104.24 111.797 104.253 111.668 104.253 111.505C104.253 111.342 104.24 111.214 104.214 111.119C104.188 111.023 104.14 110.975 104.07 110.975ZM106.77 110.431L104.79 114H104.065L106.045 110.431H106.77ZM106.775 111.8C107.055 111.8 107.279 111.898 107.449 112.093C107.62 112.289 107.705 112.563 107.705 112.916C107.705 113.268 107.625 113.543 107.466 113.741C107.306 113.94 107.076 114.039 106.775 114.039C106.501 114.039 106.281 113.94 106.113 113.741C105.947 113.543 105.864 113.268 105.864 112.916C105.864 112.563 105.942 112.289 106.099 112.093C106.257 111.898 106.482 111.8 106.775 111.8ZM106.785 112.396C106.715 112.396 106.666 112.444 106.638 112.54C106.612 112.634 106.599 112.763 106.599 112.926C106.599 113.085 106.612 113.214 106.638 113.312C106.666 113.408 106.715 113.456 106.785 113.456C106.855 113.456 106.903 113.408 106.929 113.314C106.956 113.218 106.97 113.089 106.97 112.926C106.97 112.757 106.956 112.626 106.929 112.535C106.903 112.442 106.855 112.396 106.785 112.396Z" fill="white"/>
<rect x="14" y="122" width="101" height="23" rx="5" fill="white" fill-opacity="0.65"/>
<rect x="52" y="130" width="45" height="7" fill="#C4C4C4"/>
<circle cx="30.5" cy="133.5" r="8.5" fill="#C4C4C4"/>
<rect x="95" y="141" width="15" height="9" rx="3" fill="#00B794"/>
<path d="M97.71 147L98.9355 144.229H97.3901V143.431H99.9658V144L98.7085 147H97.71ZM102.883 145.22C102.883 145.507 102.861 145.763 102.815 145.989C102.769 146.214 102.696 146.405 102.595 146.563C102.496 146.721 102.364 146.841 102.2 146.924C102.035 147.007 101.833 147.049 101.594 147.049C101.296 147.049 101.052 146.976 100.862 146.832C100.671 146.685 100.531 146.476 100.439 146.204C100.35 145.931 100.305 145.603 100.305 145.22C100.305 144.834 100.346 144.505 100.427 144.231C100.51 143.956 100.646 143.746 100.835 143.599C101.024 143.453 101.277 143.379 101.594 143.379C101.892 143.379 102.135 143.453 102.324 143.599C102.515 143.744 102.655 143.954 102.747 144.229C102.838 144.502 102.883 144.833 102.883 145.22ZM101.265 145.22C101.265 145.453 101.273 145.648 101.289 145.806C101.307 145.964 101.34 146.083 101.387 146.163C101.436 146.241 101.505 146.28 101.594 146.28C101.684 146.28 101.752 146.241 101.799 146.163C101.847 146.083 101.879 145.965 101.897 145.809C101.915 145.651 101.924 145.455 101.924 145.22C101.924 144.984 101.915 144.787 101.897 144.629C101.879 144.472 101.847 144.353 101.799 144.273C101.752 144.192 101.684 144.151 101.594 144.151C101.505 144.151 101.436 144.192 101.387 144.273C101.34 144.353 101.307 144.472 101.289 144.629C101.273 144.787 101.265 144.984 101.265 145.22ZM104.06 143.379C104.34 143.379 104.565 143.477 104.734 143.672C104.905 143.868 104.99 144.142 104.99 144.495C104.99 144.848 104.91 145.124 104.751 145.323C104.591 145.521 104.361 145.621 104.06 145.621C103.787 145.621 103.566 145.521 103.398 145.323C103.232 145.124 103.149 144.848 103.149 144.495C103.149 144.142 103.228 143.868 103.384 143.672C103.542 143.477 103.767 143.379 104.06 143.379ZM104.07 143.975C104 143.975 103.951 144.023 103.923 144.119C103.897 144.214 103.884 144.342 103.884 144.505C103.884 144.664 103.897 144.793 103.923 144.891C103.951 144.987 104 145.035 104.07 145.035C104.14 145.035 104.188 144.987 104.214 144.893C104.24 144.797 104.253 144.668 104.253 144.505C104.253 144.342 104.24 144.214 104.214 144.119C104.188 144.023 104.14 143.975 104.07 143.975ZM106.77 143.431L104.79 147H104.065L106.045 143.431H106.77ZM106.775 144.8C107.055 144.8 107.279 144.898 107.449 145.093C107.62 145.289 107.705 145.563 107.705 145.916C107.705 146.268 107.625 146.543 107.466 146.741C107.306 146.94 107.076 147.039 106.775 147.039C106.501 147.039 106.281 146.94 106.113 146.741C105.947 146.543 105.864 146.268 105.864 145.916C105.864 145.563 105.942 145.289 106.099 145.093C106.257 144.898 106.482 144.8 106.775 144.8ZM106.785 145.396C106.715 145.396 106.666 145.444 106.638 145.54C106.612 145.634 106.599 145.763 106.599 145.926C106.599 146.085 106.612 146.214 106.638 146.312C106.666 146.408 106.715 146.456 106.785 146.456C106.855 146.456 106.903 146.408 106.929 146.314C106.956 146.218 106.97 146.089 106.97 145.926C106.97 145.757 106.956 145.626 106.929 145.535C106.903 145.442 106.855 145.396 106.785 145.396Z" fill="white"/>
<rect x="14" y="155" width="101" height="23" rx="5" fill="white" fill-opacity="0.65"/>
<rect x="52" y="163" width="45" height="7" fill="#C4C4C4"/>
<circle cx="30.5" cy="166.5" r="8.5" fill="#C4C4C4"/>
<rect x="95" y="174" width="15" height="9" rx="3" fill="#00B794"/>
<path d="M100.054 179.309H99.6606V180H98.7085V179.309H97.2852V178.601L98.7695 176.431H99.6606V178.589H100.054V179.309ZM98.7085 178.589V178.174C98.7085 178.136 98.7093 178.089 98.7109 178.032C98.7126 177.975 98.7142 177.918 98.7158 177.861C98.7191 177.803 98.7215 177.754 98.7231 177.715C98.7264 177.674 98.7288 177.652 98.7305 177.649H98.7036C98.6727 177.722 98.6442 177.783 98.6182 177.832C98.5921 177.879 98.5579 177.935 98.5156 178L98.1201 178.589H98.7085ZM101.75 177.661C101.949 177.661 102.13 177.706 102.292 177.795C102.455 177.885 102.585 178.015 102.683 178.186C102.781 178.357 102.83 178.565 102.83 178.811C102.83 179.076 102.776 179.302 102.668 179.487C102.563 179.671 102.402 179.811 102.188 179.907C101.974 180.002 101.705 180.049 101.379 180.049C101.173 180.049 100.984 180.033 100.813 180C100.644 179.969 100.492 179.921 100.359 179.856V179.065C100.484 179.122 100.635 179.174 100.811 179.221C100.988 179.267 101.151 179.29 101.299 179.29C101.418 179.29 101.519 179.272 101.602 179.238C101.685 179.204 101.747 179.154 101.79 179.087C101.833 179.02 101.855 178.938 101.855 178.84C101.855 178.705 101.807 178.599 101.709 178.523C101.611 178.445 101.463 178.406 101.265 178.406C101.175 178.406 101.087 178.415 101.001 178.433C100.915 178.451 100.839 178.47 100.774 178.491L100.42 178.315L100.554 176.431H102.59V177.234H101.375L101.331 177.705C101.383 177.695 101.436 177.686 101.489 177.676C101.545 177.666 101.632 177.661 101.75 177.661ZM104.06 176.379C104.34 176.379 104.565 176.477 104.734 176.672C104.905 176.868 104.99 177.142 104.99 177.495C104.99 177.848 104.91 178.124 104.751 178.323C104.591 178.521 104.361 178.621 104.06 178.621C103.787 178.621 103.566 178.521 103.398 178.323C103.232 178.124 103.149 177.848 103.149 177.495C103.149 177.142 103.228 176.868 103.384 176.672C103.542 176.477 103.767 176.379 104.06 176.379ZM104.07 176.975C104 176.975 103.951 177.023 103.923 177.119C103.897 177.214 103.884 177.342 103.884 177.505C103.884 177.664 103.897 177.793 103.923 177.891C103.951 177.987 104 178.035 104.07 178.035C104.14 178.035 104.188 177.987 104.214 177.893C104.24 177.797 104.253 177.668 104.253 177.505C104.253 177.342 104.24 177.214 104.214 177.119C104.188 177.023 104.14 176.975 104.07 176.975ZM106.77 176.431L104.79 180H104.065L106.045 176.431H106.77ZM106.775 177.8C107.055 177.8 107.279 177.898 107.449 178.093C107.62 178.289 107.705 178.563 107.705 178.916C107.705 179.268 107.625 179.543 107.466 179.741C107.306 179.94 107.076 180.039 106.775 180.039C106.501 180.039 106.281 179.94 106.113 179.741C105.947 179.543 105.864 179.268 105.864 178.916C105.864 178.563 105.942 178.289 106.099 178.093C106.257 177.898 106.482 177.8 106.775 177.8ZM106.785 178.396C106.715 178.396 106.666 178.444 106.638 178.54C106.612 178.634 106.599 178.763 106.599 178.926C106.599 179.085 106.612 179.214 106.638 179.312C106.666 179.408 106.715 179.456 106.785 179.456C106.855 179.456 106.903 179.408 106.929 179.314C106.956 179.218 106.97 179.089 106.97 178.926C106.97 178.757 106.956 178.626 106.929 178.535C106.903 178.442 106.855 178.396 106.785 178.396Z" fill="white"/>
<rect x="14" y="188" width="101" height="23" rx="5" fill="white" fill-opacity="0.65"/>
<rect x="52" y="196" width="45" height="7" fill="#C4C4C4"/>
<circle cx="30.5" cy="199.5" r="8.5" fill="#C4C4C4"/>
<rect x="95" y="207" width="15" height="9" rx="3" fill="#00B794"/>
<path d="M99.939 213H97.3486V212.365L98.2202 211.484C98.4009 211.295 98.5409 211.144 98.6401 211.03C98.741 210.916 98.8118 210.819 98.8525 210.739C98.8932 210.66 98.9136 210.576 98.9136 210.49C98.9136 210.384 98.8794 210.308 98.811 210.261C98.7427 210.214 98.6621 210.19 98.5693 210.19C98.457 210.19 98.3431 210.222 98.2275 210.288C98.1136 210.351 97.9842 210.445 97.8394 210.571L97.3096 209.951C97.417 209.855 97.5309 209.764 97.6514 209.677C97.7718 209.589 97.9142 209.518 98.0786 209.462C98.243 209.407 98.4432 209.379 98.6792 209.379C98.9217 209.379 99.1317 209.422 99.3091 209.506C99.4881 209.591 99.6265 209.707 99.7241 209.855C99.8218 210.002 99.8706 210.169 99.8706 210.356C99.8706 210.563 99.8324 210.747 99.7559 210.91C99.681 211.071 99.5679 211.233 99.4165 211.396C99.2651 211.557 99.0763 211.74 98.8501 211.945L98.5889 212.18V212.204H99.939V213ZM102.883 211.22C102.883 211.507 102.861 211.763 102.815 211.989C102.769 212.214 102.696 212.405 102.595 212.563C102.496 212.721 102.364 212.841 102.2 212.924C102.035 213.007 101.833 213.049 101.594 213.049C101.296 213.049 101.052 212.976 100.862 212.832C100.671 212.685 100.531 212.476 100.439 212.204C100.35 211.931 100.305 211.603 100.305 211.22C100.305 210.834 100.346 210.505 100.427 210.231C100.51 209.956 100.646 209.746 100.835 209.599C101.024 209.453 101.277 209.379 101.594 209.379C101.892 209.379 102.135 209.453 102.324 209.599C102.515 209.744 102.655 209.954 102.747 210.229C102.838 210.502 102.883 210.833 102.883 211.22ZM101.265 211.22C101.265 211.453 101.273 211.648 101.289 211.806C101.307 211.964 101.34 212.083 101.387 212.163C101.436 212.241 101.505 212.28 101.594 212.28C101.684 212.28 101.752 212.241 101.799 212.163C101.847 212.083 101.879 211.965 101.897 211.809C101.915 211.651 101.924 211.455 101.924 211.22C101.924 210.984 101.915 210.787 101.897 210.629C101.879 210.472 101.847 210.353 101.799 210.273C101.752 210.192 101.684 210.151 101.594 210.151C101.505 210.151 101.436 210.192 101.387 210.273C101.34 210.353 101.307 210.472 101.289 210.629C101.273 210.787 101.265 210.984 101.265 211.22ZM104.06 209.379C104.34 209.379 104.565 209.477 104.734 209.672C104.905 209.868 104.99 210.142 104.99 210.495C104.99 210.848 104.91 211.124 104.751 211.323C104.591 211.521 104.361 211.621 104.06 211.621C103.787 211.621 103.566 211.521 103.398 211.323C103.232 211.124 103.149 210.848 103.149 210.495C103.149 210.142 103.228 209.868 103.384 209.672C103.542 209.477 103.767 209.379 104.06 209.379ZM104.07 209.975C104 209.975 103.951 210.023 103.923 210.119C103.897 210.214 103.884 210.342 103.884 210.505C103.884 210.664 103.897 210.793 103.923 210.891C103.951 210.987 104 211.035 104.07 211.035C104.14 211.035 104.188 210.987 104.214 210.893C104.24 210.797 104.253 210.668 104.253 210.505C104.253 210.342 104.24 210.214 104.214 210.119C104.188 210.023 104.14 209.975 104.07 209.975ZM106.77 209.431L104.79 213H104.065L106.045 209.431H106.77ZM106.775 210.8C107.055 210.8 107.279 210.898 107.449 211.093C107.62 211.289 107.705 211.563 107.705 211.916C107.705 212.268 107.625 212.543 107.466 212.741C107.306 212.94 107.076 213.039 106.775 213.039C106.501 213.039 106.281 212.94 106.113 212.741C105.947 212.543 105.864 212.268 105.864 211.916C105.864 211.563 105.942 211.289 106.099 211.093C106.257 210.898 106.482 210.8 106.775 210.8ZM106.785 211.396C106.715 211.396 106.666 211.444 106.638 211.54C106.612 211.634 106.599 211.763 106.599 211.926C106.599 212.085 106.612 212.214 106.638 212.312C106.666 212.408 106.715 212.456 106.785 212.456C106.855 212.456 106.903 212.408 106.929 212.314C106.956 212.218 106.97 212.089 106.97 211.926C106.97 211.757 106.956 211.626 106.929 211.535C106.903 211.442 106.855 211.396 106.785 211.396Z" fill="white"/>
<rect x="2.5" y="2.5" width="124" height="224" rx="12.5" stroke="white" stroke-width="5"/>
</svg>
