<svg width="129" height="229" viewBox="0 0 129 229" fill="none" xmlns="http://www.w3.org/2000/svg">
<rect x="29" y="82" width="72" height="5" fill="#C4C4C4"/>
<rect x="16" y="92" width="98" height="5" fill="#C4C4C4"/>
<rect x="24" y="102" width="82" height="5" fill="#C4C4C4"/>
<rect x="38" y="112" width="55" height="5" fill="#C4C4C4"/>
<rect x="14" y="190" width="20" height="12" rx="6" fill="#C5283D"/>
<path d="M55 196C55 192.686 57.6863 190 61 190H69C72.3137 190 75 192.686 75 196C75 199.314 72.3137 202 69 202H61C57.6863 202 55 199.314 55 196Z" fill="#FFBA49"/>
<path d="M96 196C96 192.686 98.6863 190 102 190H110C113.314 190 116 192.686 116 196C116 199.314 113.314 202 110 202H102C98.6863 202 96 199.314 96 196Z" fill="#00B794"/>
<rect x="2.5" y="2.5" width="124" height="224" rx="12.5" stroke="white" stroke-width="5"/>
</svg>
